<?xml version="1.0" encoding="utf-8"?>
<!-- Generator: Adobe Illustrator 19.0.0, SVG Export Plug-In . SVG Version: 6.00 Build 0)  -->
<svg version="1.1" id="Layer_1" xmlns="http://www.w3.org/2000/svg" xmlns:xlink="http://www.w3.org/1999/xlink" x="0px" y="0px"
	 viewBox="-225 221 48 48.8" style="enable-background:new -225 221 48 48.8;" xml:space="preserve">
<style type="text/css">
	.st0{fill:none;stroke:#FFFFFF;stroke-width:2;stroke-linecap:round;stroke-linejoin:round;stroke-miterlimit:10;}
</style>
<g>
	<path class="st0" d="M-183.1,233.5c-0.3-5.4-6.8-11.5-6.8-11.5c0.6,2.5-0.7,3.6-3.3,6.9c-2.5,3.3-1.2,7-1.2,7
		C-191.9,241.8-182.8,238.9-183.1,233.5z"/>
	<path class="st0" d="M-191,239.1c0,0.2,0,0.4,0,0.7c0,1.5,0.1,3.3,0.2,5.2c0.1,1.9,0.3,3.9,0.4,5.9c0.4,4,0.9,8,1.3,11
		c0.1,0.7,0.2,1.4,0.3,2c0,0.6,0.3,1.1,0.7,1.5c0.4,0.4,1,0.6,1.4,0.8c0.5,0.2,0.8,0.2,0.8,0.2c1.1,0.2,2.2,0.1,3.2-0.5
		c0,0,0.3-0.2,0.7-0.5c0.4-0.3,0.8-0.7,1.1-1.2c0.3-0.5,0.3-1,0.2-1.6c-0.1-0.6-0.2-1.3-0.3-2c-0.5-3-1.3-6.9-2.2-10.8
		c-0.5-2-0.9-3.9-1.5-5.8c-0.5-1.8-1-3.5-1.5-5c-0.1-0.2-0.1-0.4-0.2-0.6"/>
	<path class="st0" d="M-194.3,235.9c-1.4-0.4-2.7-0.7-4.2-0.9c-12.6-1.9-23.9,3.9-25.4,12.9c-1.5,9,7.5,17.8,20.1,19.7
		c4.9,0.7,10.3,1.1,12.9-2.1c1-1.2-0.1-2.1-1.1-3.4c-1.7-2.1-3.9-4.8-1.9-7.5c1-1.4,2.3-1.8,3.7-1.6"/>
	<path class="st0" d="M-181.7,256c0.5,0,1.1-0.2,1.6-0.4c0.8-0.4,1.6-0.9,1.8-1.8c1.2-4.6-2-9.9-7.4-13.7"/>
	<ellipse class="st0" cx="-214.2" cy="246.8" rx="4.4" ry="3.2"/>
	<ellipse class="st0" cx="-208.2" cy="257.1" rx="4.4" ry="3.2"/>
	<ellipse class="st0" cx="-203" cy="241.1" rx="4.4" ry="3.2"/>
</g>
</svg>
