<?xml version="1.0" encoding="utf-8"?>
<!-- Generator: Adobe Illustrator 19.0.0, SVG Export Plug-In . SVG Version: 6.00 Build 0)  -->
<svg version="1.1" id="Layer_1" xmlns:serif="http://www.serif.com/"
	 xmlns="http://www.w3.org/2000/svg" xmlns:xlink="http://www.w3.org/1999/xlink" x="0px" y="0px" viewBox="-222 221.3 53.8 59.7"
	 style="enable-background:new -222 221.3 53.8 59.7;" xml:space="preserve">
<style type="text/css">
	.st0{fill:#FFFFFF;stroke:#FFFFFF;stroke-width:0.5;stroke-miterlimit:10;}
</style>
<path class="st0" d="M-203.1,266.2c0-0.8,0-1.6,0-2.4c0-0.3-0.2-0.7-0.5-0.9c-2-1.2-3.7-2.7-5.1-4.5c-1.5-2.1-2.6-4.5-3.1-7
	c-0.6-3.1-0.3-6.4,0.9-9.4c1.1-2.9,3.1-5.4,5.5-7.3c2.3-1.7,5-2.9,7.8-3.3c0.8-0.1,1.6-0.2,2.5-0.2c0,0,0,0,0.1,0
	c2.4,0,4.8,0.5,7,1.5c2.1,0.9,4,2.3,5.5,4c1.4,1.5,2.5,3.2,3.2,5.1c1.1,2.7,1.5,5.6,1.1,8.4c-0.3,2.2-0.9,4.2-2,6.1
	c-1.4,2.5-3.4,4.7-5.8,6.2c-0.2,0.1-0.4,0.2-0.6,0.4c-0.3,0.2-0.5,0.5-0.5,0.9c0,0.7,0,1.5,0,2.2v0.2c0,2.3,0,4.7,0,7
	c0,0.4-0.1,0.8-0.3,1.1c-0.4,0.5-1,0.9-1.7,0.9s-1.3,0-2,0v1c0,0.8-0.3,1.6-0.9,2.1c-0.5,0.5-1.3,0.8-2,0.9h-0.1c-0.7,0-1.3,0-2,0
	c-0.8,0-1.6-0.3-2.1-0.9c-0.6-0.6-0.9-1.3-0.9-2.1v-1c-0.7,0-1.3,0-2,0c-0.5,0-0.9-0.2-1.3-0.5c-0.4-0.4-0.7-0.9-0.7-1.5l0,0
	C-203.1,273.2-203.1,266.2-203.1,266.2z M-197.1,275.2c0,0.3,0,0.7,0,1s0.2,0.6,0.4,0.8c0.2,0.1,0.4,0.2,0.6,0.2c0.7,0,1.3,0,2,0
	c0.3,0,0.7-0.2,0.9-0.5c0.1-0.2,0.1-0.3,0.1-0.5v-1C-194.4,275.2-195.8,275.2-197.1,275.2z M-189.1,271.2h-12c0,0.7,0,1.3,0,2l0,0
	c0.9,0,1.9,0,2.8,0h0.1h0.1h6h0.1l0,0c1,0,1.9,0,2.9,0l0,0C-189.1,273.2-189.1,271.2-189.1,271.2z M-201.1,269.2h12v-2h-12
	C-201.1,267.9-201.1,268.5-201.1,269.2z M-209.1,261.3C-209.1,261.4-209.1,261.4-209.1,261.3c0.5,0.1,0.8,0.4,0.9,0.8
	c0.1,0.3,0,0.6-0.2,0.8c0,0,0,0-0.1,0.1l-2.8,2.8c0,0,0,0-0.1,0.1c-0.2,0.2-0.5,0.2-0.7,0.2c-0.3,0-0.5-0.2-0.7-0.4
	c-0.2-0.3-0.3-0.6-0.2-0.9c0-0.1,0.1-0.2,0.1-0.3c0-0.1,0.1-0.1,0.1-0.2l2.8-2.8c0.1-0.1,0.1-0.1,0.2-0.1c0.1-0.1,0.2-0.1,0.4-0.1
	C-209.4,261.3-209.3,261.3-209.1,261.3C-209.2,261.3-209.2,261.3-209.1,261.3z M-180.9,261.3c0.1,0,0.1,0,0.2,0
	c0.1,0,0.2,0.1,0.3,0.2c0,0,0,0,0.1,0.1l2.8,2.8c0.1,0.1,0.1,0.1,0.1,0.2c0.1,0.2,0.2,0.5,0.1,0.8c-0.1,0.3-0.3,0.6-0.6,0.7
	c-0.3,0.1-0.7,0.1-1-0.2c0,0,0,0-0.1-0.1l-2.8-2.8c0,0,0,0-0.1-0.1c-0.2-0.3-0.3-0.8-0.1-1.1s0.5-0.5,0.8-0.5
	C-181,261.3-180.9,261.3-180.9,261.3z M-194.1,265.2h5c0-0.5,0-0.9,0-1.4c0-0.8,0.3-1.5,0.9-2.1c0.2-0.2,0.4-0.3,0.6-0.5
	c0,0,0,0,0.1,0c2.6-1.5,4.7-3.8,6-6.5c1.1-2.2,1.6-4.8,1.5-7.3s-0.9-4.9-2.1-7c-1.3-2.1-3.1-4-5.3-5.2c-2.3-1.3-4.9-2-7.5-2
	c0,0,0,0-0.1,0c-2.1,0-4.3,0.5-6.2,1.3c-2.4,1.1-4.6,2.9-6.1,5.1c-1.3,1.9-2.2,4-2.5,6.2c-0.3,2.1-0.2,4.2,0.3,6.2
	c0.7,2.5,1.9,4.7,3.7,6.6c1,1,2,1.8,3.2,2.5c0.1,0.1,0.2,0.1,0.3,0.2c0.7,0.5,1.2,1.4,1.2,2.3v0.1l0,0v1.4h5v-4.6l-2.5-2.5
	c0,0,0,0-0.1-0.1c-0.2-0.3-0.3-0.7-0.2-1c0.1-0.3,0.5-0.6,0.8-0.6c0.1,0,0.1,0,0.2,0h0.1c0.1,0,0.3,0.1,0.4,0.1
	c0.1,0,0.1,0.1,0.2,0.1l2.1,2.1l2.1-2.1c0.1-0.1,0.1-0.1,0.2-0.1c0.1-0.1,0.2-0.1,0.4-0.1c0.1,0,0.1,0,0.2,0h0.1h0.1
	c0.4,0.1,0.7,0.3,0.8,0.7c0.1,0.3,0,0.7-0.2,0.9c0,0,0,0-0.1,0.1l-2.5,2.5C-194.1,260.5-194.1,265.2-194.1,265.2z M-171.1,249.2h-4
	h-0.1c-0.3,0-0.6-0.2-0.7-0.4c-0.2-0.3-0.2-0.8,0-1.1c0.1-0.2,0.4-0.4,0.6-0.4c0.1,0,0.1,0,0.2,0h4h0.1c0.1,0,0.1,0,0.2,0
	c0.3,0.1,0.5,0.3,0.6,0.6c0.1,0.4,0.1,0.8-0.2,1.1C-170.6,249.1-170.8,249.2-171.1,249.2C-171,249.2-171.1,249.2-171.1,249.2z
	 M-215.1,249.2h-4c-0.1,0-0.1,0-0.2,0c-0.4-0.1-0.7-0.4-0.8-0.8c-0.1-0.3,0-0.7,0.3-0.9c0.2-0.2,0.4-0.3,0.6-0.3h0.1h4h0.1h0.1
	c0.4,0.1,0.7,0.4,0.8,0.8c0.1,0.3,0,0.7-0.3,0.9c-0.1,0.1-0.3,0.2-0.5,0.3C-215,249.2-215,249.2-215.1,249.2z M-212,230.2
	c0.1,0,0.1,0,0.2,0c0.1,0,0.2,0.1,0.3,0.2c0,0,0,0,0.1,0.1l2.8,2.8c0.1,0.1,0.1,0.1,0.1,0.2c0.2,0.3,0.2,0.7,0.1,1
	c-0.2,0.3-0.6,0.6-1,0.5c-0.2,0-0.4-0.1-0.5-0.2c0,0,0,0-0.1-0.1l-2.8-2.8c0,0,0,0-0.1-0.1c-0.2-0.3-0.3-0.8-0.1-1.1
	s0.5-0.5,0.8-0.5C-212.1,230.2-212,230.2-212,230.2z M-178,230.2L-178,230.2c0.4,0.1,0.8,0.4,0.9,0.7c0.1,0.3,0,0.7-0.2,0.9
	c0,0,0,0-0.1,0.1l-2.8,2.8c-0.1,0.1-0.1,0.1-0.2,0.1c-0.2,0.2-0.6,0.2-0.8,0.1c-0.3-0.1-0.5-0.3-0.6-0.6s-0.1-0.7,0.2-1
	c0,0,0,0,0.1-0.1l2.8-2.8c0.1-0.1,0.1-0.1,0.2-0.1c0.1-0.1,0.2-0.1,0.4-0.1C-178.2,230.2-178.2,230.2-178,230.2
	C-178.1,230.2-178.1,230.2-178,230.2z M-195,223.2C-195,223.2-195,223.1-195,223.2c0.4,0.1,0.8,0.4,0.9,0.7c0,0.1,0,0.1,0,0.2v0.1v4
	c0,0.1,0,0.1,0,0.2c-0.1,0.3-0.3,0.6-0.6,0.7c-0.3,0.1-0.6,0.1-0.9,0c-0.3-0.2-0.5-0.5-0.5-0.8v-0.1v-4V224c0-0.4,0.3-0.7,0.6-0.8
	c0.1,0,0.2-0.1,0.3-0.1C-195.1,223.2-195.1,223.2-195,223.2z"/>
</svg>
