<?xml version="1.0" encoding="utf-8"?>
<!-- Generator: Adobe Illustrator 19.0.0, SVG Export Plug-In . SVG Version: 6.00 Build 0)  -->
<svg version="1.1" id="Capa_1" xmlns="http://www.w3.org/2000/svg" xmlns:xlink="http://www.w3.org/1999/xlink" x="0px" y="0px"
	 viewBox="6 -6 512 512" style="enable-background:new 6 -6 512 512;" xml:space="preserve">
<style type="text/css">
	.st0{fill:#3AC9D7;}
</style>
<g>
	<g>
		<path class="st0" d="M367.5-6H156.9C68.6-6,6,58.6,6,146.9V351c0,88.4,61.4,155,149.7,155h209.2c88.4,0,153.1-65.4,153.1-153.7
			V145.7C518,57.3,455.9-6,367.5-6z M480.4,350.8c0,64.8-52.8,117.6-117.6,117.6H161.2c-64.8,0-117.6-52.8-117.6-117.6V149.2
			c0-64.8,52.8-117.6,117.6-117.6h201.6c64.8,0,117.6,52.8,117.6,117.6V350.8z"/>
	</g>
</g>
<g>
	<g>
		<path class="st0" d="M262,122c-70.7,0-128,57.3-128,128s57.3,128,128,128s128-57.3,128-128S332.7,122,262,122z M262,334
			c-46.3,0-84-37.7-84-84c0-46.3,37.7-84,84-84s84,37.7,84,84C346,296.3,308.3,334,262,334z"/>
	</g>
</g>
<g>
	<g>
		<circle class="st0" cx="399.6" cy="112.4" r="17.1"/>
	</g>
</g>
</svg>
