<?xml version="1.0" encoding="utf-8"?>
<!-- Generator: Adobe Illustrator 19.0.0, SVG Export Plug-In . SVG Version: 6.00 Build 0)  -->
<svg version="1.1" id="Layer_1" xmlns="http://www.w3.org/2000/svg" xmlns:xlink="http://www.w3.org/1999/xlink" x="0px" y="0px"
	 viewBox="6 -6 512 512" style="enable-background:new 6 -6 512 512;" xml:space="preserve">
<style type="text/css">
	.st0{fill:#3AC9D7;}
</style>
<path class="st0" d="M166,417H96V191h70V417z M173,119c0-22.6-18.4-41-41-41c-22.7,0-41,18.4-41,41c0,22.6,18.3,41,41,41
	C154.6,160,173,141.6,173,119z M428,292.7C428,232,415.2,187,344.3,187c-34.1,0-56.9,17-66.2,34.7H278V191h-68v226h68V304.8
	c0-29.4,7.5-57.9,43.9-57.9c35.9,0,37.1,33.6,37.1,59.7V417h69V292.7z M518,451V49c0-33.1-22.9-55-56-55H61C27.9-6,6,14.9,6,48v403
	c0,33.1,21.9,55,55,55h402C496.1,506,518,484.1,518,451z M467.8,23.2c11.6,0,21,9.4,21,21v411.6c0,11.6-9.4,21-21,21H56.2
	c-11.6,0-21-9.4-21-21V44.2c0-11.6,9.4-21,21-21H467.8z"/>
</svg>
