<?xml version="1.0" encoding="utf-8"?>
<!-- Generator: Adobe Illustrator 19.0.0, SVG Export Plug-In . SVG Version: 6.00 Build 0)  -->
<svg version="1.1" id="Layer_1" xmlns="http://www.w3.org/2000/svg" xmlns:xlink="http://www.w3.org/1999/xlink" x="0px" y="0px"
	 viewBox="-190.9 199.3 84.4 76.6" style="enable-background:new -190.9 199.3 84.4 76.6;" xml:space="preserve">
<style type="text/css">
	.st0{fill:#3AC9D7;}
</style>
<title>Artboard 136</title>
<path class="st0" d="M-136.7,206.1c-1.6-4.1-6.2-6.2-10.3-4.6c0,0,0,0,0,0l-25.9,9.9c-4.1,1.6-6.2,6.2-4.6,10.3l15.9,41.7l0,0
	l2.5,6.5c1.6,4.1,6.2,6.2,10.3,4.6c0,0,0,0,0,0l25.8-9.9c4.1-1.6,6.2-6.2,4.6-10.3L-136.7,206.1z M-158.6,260.1l-15.2-39.9
	c-0.8-2.1,0.2-4.4,2.3-5.2l25.8-9.8c2.1-0.8,4.4,0.2,5.2,2.3l15.2,39.9L-158.6,260.1z M-122.2,258.8c-0.4,1-1.2,1.7-2.2,2.1
	l-25.8,9.9c-2.1,0.8-4.4-0.2-5.2-2.3l-1.8-4.7l33.3-12.7l1.8,4.7C-121.7,256.8-121.7,257.9-122.2,258.8L-122.2,258.8z M-136.4,261
	c0.5,1.3-0.2,2.8-1.5,3.3c-1.3,0.5-2.8-0.2-3.3-1.5s0.2-2.8,1.5-3.3c0,0,0,0,0,0C-138.4,259-136.9,259.7-136.4,261z M-165.6,263.3
	c-0.4,1-1.5,1.6-2.5,1.3c-0.5-0.1-11.1-3.8-15.5-13.8c-2.4-5.3-2.5-11.4-0.4-18.1l-3,1.2c-1,0.4-2.2-0.1-2.6-1.1s0.1-2.2,1.1-2.6
	l7.2-2.8c0.2-0.1,0.5-0.1,0.7-0.1l0,0c0.1,0,0.2,0,0.3,0l0,0c0.3,0.1,0.5,0.2,0.7,0.3l0.2,0.1l0.1,0.1c0.1,0.1,0.1,0.1,0.2,0.2
	l0.1,0.1c0.1,0.1,0.1,0.2,0.2,0.4l2.8,7c0.4,1-0.1,2.2-1.1,2.6s-2.2-0.1-2.6-1.1l-0.8-2.1c-1.4,5.4-1.3,10.2,0.6,14.3
	c3.7,8.4,13,11.7,13.1,11.7C-165.8,261.1-165.3,262.2-165.6,263.3C-165.6,263.3-165.6,263.3-165.6,263.3z M-109.5,241.1l-7.2,2.8
	h-0.1h-0.1c-0.2,0-0.3,0.1-0.5,0.1l0,0c-0.2,0-0.4,0-0.5-0.1h-0.1h-0.2c-0.1,0-0.2-0.1-0.3-0.2h-0.1c-0.1-0.1-0.3-0.2-0.4-0.3l0-0.1
	c-0.1-0.1-0.2-0.3-0.3-0.5l-2.7-7c-0.4-1,0.1-2.2,1.1-2.6c1-0.4,2.2,0.1,2.6,1.1l0.8,2.1c1.5-5.3,1.3-10.1-0.5-14.3
	c-3.7-8.4-13-11.7-13.1-11.7c-1-0.4-1.6-1.5-1.3-2.5c0.4-1,1.5-1.6,2.5-1.3c0.4,0.2,11.1,3.8,15.5,13.8c2.4,5.3,2.5,11.4,0.4,18.1
	l3-1.2c1-0.4,2.2,0.1,2.6,1.1S-108.5,240.7-109.5,241.1L-109.5,241.1z"/>
</svg>
