<?xml version="1.0" encoding="utf-8"?>
<!-- Generator: Adobe Illustrator 19.0.0, SVG Export Plug-In . SVG Version: 6.00 Build 0)  -->
<svg version="1.1"
	 id="Layer_1" xmlns:dc="http://purl.org/dc/elements/1.1/" xmlns:cc="http://creativecommons.org/ns#" xmlns:rdf="http://www.w3.org/1999/02/22-rdf-syntax-ns#" xmlns:svg="http://www.w3.org/2000/svg" xmlns:sodipodi="http://sodipodi.sourceforge.net/DTD/sodipodi-0.dtd" xmlns:inkscape="http://www.inkscape.org/namespaces/inkscape"
	 xmlns="http://www.w3.org/2000/svg" xmlns:xlink="http://www.w3.org/1999/xlink" x="0px" y="0px" viewBox="-232.7 235.3 18.7 25.2"
	 style="enable-background:new -232.7 235.3 18.7 25.2;" xml:space="preserve">
<style type="text/css">
	.st0{fill:#FFFFFF;}
</style>
<g transform="translate(0,-271.59998)">
	<path class="st0" d="M-223.3,507.9c-4.7,0-8.5,3.8-8.5,8.5c0,3.4,2.1,7,4.1,9.8c2,2.8,4,4.8,4,4.8c0.2,0.2,0.5,0.2,0.7,0
		c0,0,2-2,4-4.8c2-2.8,4.1-6.4,4.1-9.8C-214.8,511.7-218.6,507.9-223.3,507.9z M-223.3,509c4.1,0,7.4,3.3,7.4,7.4
		c0,3-1.9,6.5-3.9,9.2c-1.8,2.5-3.2,3.9-3.5,4.2c-0.3-0.3-1.8-1.8-3.5-4.2c-2-2.7-3.9-6.3-3.9-9.2C-230.7,512.3-227.4,509-223.3,509
		z"/>
	<path class="st0" d="M-223.3,512.7c-2,0-3.7,1.7-3.7,3.7s1.7,3.7,3.7,3.7s3.7-1.7,3.7-3.7S-221.3,512.7-223.3,512.7z M-223.3,513.7
		c1.5,0,2.6,1.2,2.6,2.6s-1.2,2.6-2.6,2.6c-1.5,0-2.6-1.2-2.6-2.6S-224.8,513.7-223.3,513.7z"/>
</g>
</svg>
