<?xml version="1.0" encoding="utf-8"?>
<!-- Generator: Adobe Illustrator 19.0.0, SVG Export Plug-In . SVG Version: 6.00 Build 0)  -->
<svg version="1.1" id="Layer_1" xmlns="http://www.w3.org/2000/svg" xmlns:xlink="http://www.w3.org/1999/xlink" x="0px" y="0px"
	 viewBox="-237 237.3 24 21.4" style="enable-background:new -237 237.3 24 21.4;" xml:space="preserve">
<style type="text/css">
	.st0{fill:#FFFFFF;}
</style>
<title>Iconsset</title>
<path class="st0" d="M-216,239.5h-18c-0.8,0-1.5,0.7-1.5,1.5v12c0,0.8,0.7,1.5,1.5,1.5h6.4c-0.3,0.4-0.7,0.8-1.1,1
	c-0.5,0.3-0.9,0.5-1,1c0,0.3,0.1,0.6,0.3,0.8c0.1,0.1,0.2,0.2,0.4,0.2h8c0.1,0,0.3-0.1,0.4-0.1c0.2-0.2,0.4-0.5,0.3-0.8
	c-0.1-0.5-0.5-0.7-1-1c-0.5-0.2-0.9-0.6-1.1-1h6.4c0.8,0,1.5-0.7,1.5-1.5c0,0,0,0,0,0v-12C-214.5,240.2-215.2,239.5-216,239.5z
	 M-234,240.5h18c0.3,0,0.5,0.2,0.5,0.5v10.5h-19V241C-234.5,240.7-234.3,240.5-234,240.5z M-221.8,256.4l0.2,0.1h-6.9l0.2-0.1
	c0.8-0.4,1.4-1,1.7-1.9h3.1C-223.2,255.3-222.6,256-221.8,256.4z M-216,253.5h-18c-0.3,0-0.5-0.2-0.5-0.5v-0.5h19v0.5
	C-215.5,253.3-215.7,253.5-216,253.5z"/>
</svg>
