<?xml version="1.0" encoding="utf-8"?>
<!-- Generator: Adobe Illustrator 19.0.0, SVG Export Plug-In . SVG Version: 6.00 Build 0)  -->
<svg version="1.1" id="Layer_1" xmlns="http://www.w3.org/2000/svg" xmlns:xlink="http://www.w3.org/1999/xlink" x="0px" y="0px"
	 viewBox="-199 188 100 100.3" style="enable-background:new -199 188 100 100.3;" xml:space="preserve">
<style type="text/css">
	.st0{fill:#FFFFFF;}
</style>
<title>Artboard 9</title>
<path class="st0" d="M-186.2,284.7h74.4c4.9,0,8.8-4,8.8-8.8v-47.2c0-0.7-0.3-1.4-0.9-1.9l-12.3-10.4v-18.1c0-3.9-3.1-7-7-7h-51.1
	c-3.9,0-7,3.1-7,7V216l-12.8,10.8c-0.6,0.5-0.9,1.2-0.9,1.9v47.2C-195,280.8-191.1,284.7-186.2,284.7z M-111.8,279.7h-74.3
	c-2.1,0-3.8-1.7-3.8-3.8v-42.5l28.5,20.2l-20.2,15.5c-1.1,0.8-1.3,2.4-0.5,3.5c0.8,1.1,2.4,1.3,3.5,0.5l21.5-16.5l7,5
	c0.9,0.6,2,0.6,2.9,0l7-5l21.5,16.4c1.1,0.8,2.7,0.6,3.5-0.5c0.8-1.1,0.6-2.7-0.5-3.5l-20.2-15.5l28-19.8v42.1
	C-108,278-109.7,279.7-111.8,279.7L-111.8,279.7z M-109.4,228.7l-6.8,4.8v-10.6L-109.4,228.7z M-174.3,196.3h51.1c1.1,0,2,0.9,2,2
	V237l-27.6,19.5l-27.6-19.5v-38.8C-176.3,197.2-175.4,196.3-174.3,196.3z M-181.3,233.5l-7.1-5l7.1-6V233.5z M-149,243.7h0.6
	c1.4,0,2.5-1.1,2.5-2.5s-1.1-2.5-2.5-2.5h-0.6c-8.8,0-15.9-7.1-15.9-15.9s7.1-15.9,15.9-15.9c8.8,0,15.9,7.1,15.9,15.9v4.3
	c-0.1,1.5-1.4,2.7-3,2.6c-1.4-0.1-2.5-1.2-2.6-2.6v-4.3c0-5.7-4.6-10.4-10.3-10.5c-5.7,0-10.4,4.6-10.5,10.3
	c0,5.7,4.6,10.4,10.3,10.5c2.3,0,4.6-0.8,6.5-2.2c2.1,3.8,6.8,5.1,10.6,3c2.5-1.4,4-4,4-6.9v-4.3c0-11.6-9.4-20.9-20.9-20.9
	c-11.6,0-20.9,9.4-20.9,20.9S-160.6,243.7-149,243.7z M-149,228.1c-3,0-5.4-2.4-5.4-5.4c0-3,2.4-5.4,5.4-5.4c3,0,5.4,2.4,5.4,5.4
	c0,0,0,0,0,0C-143.6,225.7-146,228.1-149,228.1z"/>
</svg>
