<?xml version="1.0" encoding="utf-8"?>
<!-- Generator: Adobe Illustrator 19.0.0, SVG Export Plug-In . SVG Version: 6.00 Build 0)  -->
<svg version="1.1" id="Layer_1" xmlns="http://www.w3.org/2000/svg" xmlns:xlink="http://www.w3.org/1999/xlink" x="0px" y="0px"
	 viewBox="-189.1 208.6 40 63.8" style="enable-background:new -189.1 208.6 40 63.8;" xml:space="preserve">
<style type="text/css">
	.st0{fill:#FFFFFF;}
</style>
<title>31_BO_phone</title>
<g>
	<path class="st0" d="M-181.6,271h25.1c3,0,5.4-2.4,5.4-5.4l0,0v-49.1c0-3-2.4-5.4-5.4-5.4h-25.1c-3,0-5.4,2.4-5.4,5.4v49.1
		C-187,268.6-184.6,271-181.6,271L-181.6,271z M-154,258h-30v-36.3h30V258z M-156.4,268h-25.1c-1.3,0-2.4-1.1-2.4-2.4l0,0V261h30
		v4.6C-154,266.9-155.1,268-156.4,268L-156.4,268z M-181.6,214h25.1c1.3,0,2.4,1.1,2.4,2.4v2.3h-30v-2.3
		C-184,215.1-182.9,214-181.6,214z"/>
	<path class="st0" d="M-177.3,243.1c0.6,0.6,1.5,0.6,2.1,0l10-10c0.6-0.6,0.6-1.5,0.1-2.1s-1.5-0.6-2.1-0.1c0,0-0.1,0-0.1,0.1
		l-10,10C-177.9,241.5-177.9,242.5-177.3,243.1z"/>
	<path class="st0" d="M-179.3,236.1c0.6,0.6,1.5,0.6,2.1,0l7.2-7.2c0.5-0.7,0.4-1.6-0.3-2.1c-0.5-0.4-1.3-0.4-1.8,0l-7.2,7.2
		C-179.8,234.5-179.9,235.5-179.3,236.1z"/>
	<circle class="st0" cx="-169" cy="264.2" r="2.5"/>
</g>
</svg>
